<?xml version="1.0" encoding="UTF-8" standalone="no"?>
<!-- Created with Inkscape (http://www.inkscape.org/) -->

<svg
   width="210mm"
   height="297mm"
   viewBox="0 0 210 297"
   version="1.1"
   id="svg1"
   xml:space="preserve"
   inkscape:version="1.3.2 (091e20e, 2023-11-25, custom)"
   sodipodi:docname="logo.svg"
   xmlns:inkscape="http://www.inkscape.org/namespaces/inkscape"
   xmlns:sodipodi="http://sodipodi.sourceforge.net/DTD/sodipodi-0.dtd"
   xmlns:xlink="http://www.w3.org/1999/xlink"
   xmlns="http://www.w3.org/2000/svg"
   xmlns:svg="http://www.w3.org/2000/svg"><sodipodi:namedview
     id="namedview1"
     pagecolor="#505050"
     bordercolor="#eeeeee"
     borderopacity="1"
     inkscape:showpageshadow="0"
     inkscape:pageopacity="0"
     inkscape:pagecheckerboard="0"
     inkscape:deskcolor="#505050"
     inkscape:document-units="mm"
     inkscape:zoom="0.54236816"
     inkscape:cx="342.0186"
     inkscape:cy="380.73769"
     inkscape:window-width="1920"
     inkscape:window-height="1057"
     inkscape:window-x="-8"
     inkscape:window-y="-8"
     inkscape:window-maximized="1"
     inkscape:current-layer="layer1" /><defs
     id="defs1"><linearGradient
       id="swatch4"
       inkscape:swatch="solid"><stop
         style="stop-color:#aa8800;stop-opacity:1;"
         offset="0"
         id="stop4" /></linearGradient><linearGradient
       inkscape:collect="always"
       xlink:href="#swatch4"
       id="linearGradient4"
       x1="42.033203"
       y1="191.96182"
       x2="168.03906"
       y2="191.96182"
       gradientUnits="userSpaceOnUse" /></defs><g
     inkscape:label="Layer 1"
     inkscape:groupmode="layer"
     id="layer1"><g
       style="fill:#0b1728"
       id="g1"
       transform="matrix(8.8194444,0,0,8.8194444,-0.79674679,42.666668)"><g
         id="SVGRepo_bgCarrier"
         stroke-width="0"
         style="fill:#0b1728" /><g
         id="SVGRepo_tracerCarrier"
         stroke-linecap="round"
         stroke-linejoin="round"
         style="fill:#0b1728" /><g
         id="SVGRepo_iconCarrier"
         style="fill:#0b1728"><path
           fill-rule="evenodd"
           clip-rule="evenodd"
           d="M 11.9426,1.25 C 9.63423,1.24999 7.82519,1.24998 6.41371,1.43975 4.96897,1.63399 3.82895,2.03933 2.93414,2.93414 2.03933,3.82895 1.63399,4.96897 1.43975,6.41371 1.24998,7.82519 1.24999,9.63423 1.25,11.9426 v 0.1148 c -1e-5,2.3084 -2e-5,4.1174 0.18975,5.5289 0.19424,1.4447 0.59958,2.5848 1.49439,3.4796 0.89481,0.8948 2.03483,1.3001 3.47957,1.4944 C 7.82519,22.75 9.63423,22.75 11.9426,22.75 h 0.1148 c 2.3084,0 4.1174,0 5.5289,-0.1897 1.4447,-0.1943 2.5848,-0.5996 3.4796,-1.4944 0.8948,-0.8948 1.3001,-2.0349 1.4944,-3.4796 C 22.75,16.1748 22.75,14.3658 22.75,12.0574 v -0.1148 c 0,-2.30837 0,-4.11741 -0.1897,-5.52889 C 22.366,4.96897 21.9607,3.82895 21.0659,2.93414 20.1711,2.03933 19.031,1.63399 17.5863,1.43975 16.1748,1.24998 14.3658,1.24999 12.0574,1.25 Z M 6.25,2.98181 C 5.18517,3.16506 4.50829,3.4813 3.9948,3.9948 3.42514,4.56445 3.09825,5.33517 2.92637,6.61358 2.75159,7.91356 2.75,9.62177 2.75,12 c 0,2.3782 0.00159,4.0864 0.17637,5.3864 0.17188,1.2784 0.49877,2.0491 1.06843,2.6188 0.56965,0.5697 1.34037,0.8966 2.61878,1.0684 C 7.91356,21.2484 9.62177,21.25 12,21.25 c 2.3782,0 4.0864,-0.0016 5.3864,-0.1764 1.2784,-0.1718 2.0491,-0.4987 2.6188,-1.0684 0.5697,-0.5697 0.8966,-1.3404 1.0684,-2.6188 C 21.2484,16.0864 21.25,14.3782 21.25,12 21.25,9.62177 21.2484,7.91356 21.0736,6.61358 20.9018,5.33517 20.5749,4.56445 20.0052,3.9948 19.4917,3.4813 18.8148,3.16506 17.75,2.98181 v 5.84921 c 0,0.46754 0,0.8511 -0.0174,1.15287 -0.0171,0.29771 -0.054,0.60601 -0.1763,0.88131 -0.4414,0.9938 -1.5304,1.5297 -2.5872,1.2731 -0.2927,-0.071 -0.5595,-0.2299 -0.8058,-0.3979 C 13.9136,11.57 13.6097,11.336 13.2392,11.0508 l -0.0185,-0.0143 c -0.4694,-0.3614 -0.6015,-0.4561 -0.7226,-0.5088 -0.3177,-0.138 -0.6785,-0.138 -0.9962,0 -0.1211,0.0527 -0.2532,0.1474 -0.7226,0.5088 l -0.0185,0.0143 C 10.3903,11.336 10.0864,11.57 9.83672,11.7404 9.59039,11.9084 9.32356,12.0673 9.03086,12.1383 7.97413,12.3949 6.88513,11.859 6.44371,10.8652 6.32145,10.5899 6.28454,10.2816 6.26739,9.98389 6.24999,9.68211 6.25,9.29859 6.25,8.83103 Z m 10,-0.16184 C 15.1242,2.75085 13.7418,2.75 12,2.75 10.2582,2.75 8.87584,2.75085 7.75,2.81997 V 8.8076 c 0,0.49673 3e-4,0.83664 0.0149,1.08998 0.01513,0.26252 0.04279,0.34322 0.04967,0.35872 0.14714,0.3313 0.51014,0.5099 0.86238,0.4244 0.01647,-0.004 0.09733,-0.0314 0.31453,-0.1795 0.20964,-0.143 0.47914,-0.3502 0.87271,-0.65321 L 9.9312,9.79636 c 0.3702,-0.28542 0.6587,-0.50785 0.973,-0.6444 0.699,-0.30368 1.4926,-0.30368 2.1916,0 0.3143,0.13655 0.6028,0.35898 0.973,0.6444 l 0.067,0.05163 c 0.3936,0.30301 0.6631,0.51021 0.8727,0.65321 0.2172,0.1481 0.2981,0.1755 0.3145,0.1795 0.3523,0.0855 0.7153,-0.0931 0.8624,-0.4244 C 16.1923,10.2408 16.22,10.1601 16.2351,9.89758 16.2497,9.64424 16.25,9.30433 16.25,8.8076 Z"
           fill="#1c274d"
           data-darkreader-inline-fill=""
           id="path1"
           style="fill:#0b1728" /></g></g><g
       id="text1"
       style="stroke:#0b1728;stroke-opacity:1;fill:url(#linearGradient4);fill-opacity:1;stroke-width:10"><path
         style="color:#000000;-inkscape-font-specification:'Franklin Gothic Book, ';fill:url(#linearGradient4);-inkscape-stroke:none;stroke:#0b1728;stroke-opacity:1;fill-opacity:1;stroke-width:10"
         d="m 157.49942,184.30437 v 6.3964 q -23.74051,18.14366 -52.58584,18.14366 -27.553753,0 -52.339827,-18.14366 v -6.3964 q 23.186972,15.56048 52.462837,15.56048 27.92277,0 52.46283,-15.56048 z"
         id="path3" /><path
         style="color:#000000;-inkscape-font-specification:'Franklin Gothic Book, ';fill:url(#linearGradient4);-inkscape-stroke:none;stroke:#0b1728;stroke-opacity:1;fill-opacity:1;stroke-width:10"
         d="m 42.533203,165.47656 v 30.31641 l 4.111328,3.00976 c 17.954813,13.14311 37.696717,20.08204 58.269529,20.08204 21.3352,0 41.29597,-6.92005 58.68164,-20.20704 l 3.94336,-3.01367 v -29.61328 c -14.90563,9.45144 -45.75173,23.77344 -62.50195,23.77344 -17.738476,0 -33.034603,-4.57129 -46.869141,-13.85547 z"
         id="path4" /></g><path
       style="fill:#aa8800;fill-opacity:1"
       d="m 274.12953,516.99533 c -7.17536,-2.27528 -12.55935,-6.70928 -15.57068,-12.82325 l -3.02591,-6.1436 V 376.78071 255.53294 l 13.68926,-0.81805 c 17.82769,-1.06536 237.70525,-1.06536 255.53294,0 l 13.68926,0.81805 v 121.24777 121.24777 l -3.05864,6.21118 c -4.04643,8.21713 -12.28924,13.25719 -21.6518,13.23899 -8.01759,-0.0156 -11.25482,-1.99762 -44.38775,-27.1772 -33.98107,-25.82413 -46.5192,-31.23687 -72.35754,-31.23687 -25.65377,0 -38.50682,5.54959 -72.35754,31.24197 -12.90702,9.79629 -26.49537,19.77951 -30.19633,22.18491 -7.22095,4.69318 -14.56861,6.32295 -20.30527,4.50387 z"
       id="path2"
       transform="scale(0.26458333)" /></g></svg>
